# xmcd CD database file
#
# Track frame offsets:
#	150
#	17011
#	35043
#	53582
#	75160
#	92753
#	112745
#	128781
#	152255
#	175502
#	198632
#	232299
#
# Disc length: 3164 seconds
#
# Revision: 3
# Processed by: cddbd v1.5.2PL0 Copyright (c) Steve Scherf et al.
# Submitted via: CDex 1.51
#
DISCID=860c5a0c
DTITLE=Chris Cagle - Chris Cagle
DYEAR=2003
DGENRE=Country
TTITLE0=What A Beautiful Day
TTITLE1=Chicks Dig It
TTITLE2=Look What I Found
TTITLE3=I Love It When She Does That
TTITLE4=Night On The Country
TTITLE5=I'd Be Lying
TTITLE6=Everything
TTITLE7=It Takes Two
TTITLE8=Growin' Love
TTITLE9=Just Love Me
TTITLE10=Look At What I've Done
TTITLE11=Data Track
EXTD=YEAR: 2003
EXTT0=
EXTT1=
EXTT2=
EXTT3=
EXTT4=
EXTT5=
EXTT6=
EXTT7=
EXTT8=
EXTT9=
EXTT10=
EXTT11=
PLAYORDER=
